<svg xmlns="http://www.w3.org/2000/svg" xmlns:xlink="http://www.w3.org/1999/xlink" viewBox="0 0 61.85 61.85"><defs><style>.cls-1{isolation:isolate;}.cls-2{fill:url(#radial-gradient);}.cls-3{fill:#ec7630;}.cls-4{fill:#19375a;}.cls-5,.cls-6{mix-blend-mode:multiply;}.cls-5{fill:url(#linear-gradient);}.cls-6{fill:url(#linear-gradient-2);}</style><radialGradient id="radial-gradient" cx="29.95" cy="32.63" r="90.33" gradientUnits="userSpaceOnUse"><stop offset="0" stop-color="#fff"/><stop offset="0.17" stop-color="#f0f0f0"/><stop offset="0.5" stop-color="#c8c8c9"/><stop offset="0.94" stop-color="#89898a"/><stop offset="1" stop-color="#808081"/></radialGradient><linearGradient id="linear-gradient" x1="34.59" y1="26.7" x2="31.05" y2="46.38" gradientUnits="userSpaceOnUse"><stop offset="0.57" stop-color="#161412" stop-opacity="0"/><stop offset="0.71" stop-color="#161412" stop-opacity="0.65"/><stop offset="0.75" stop-color="#1a1816" stop-opacity="0.66"/><stop offset="0.79" stop-color="#262422" stop-opacity="0.67"/><stop offset="0.83" stop-color="#393736" stop-opacity="0.7"/><stop offset="0.87" stop-color="#545352" stop-opacity="0.74"/><stop offset="0.91" stop-color="#787776" stop-opacity="0.79"/><stop offset="0.95" stop-color="#a3a2a2" stop-opacity="0.85"/><stop offset="0.98" stop-color="#d5d5d5" stop-opacity="0.92"/><stop offset="1" stop-color="#ededed" stop-opacity="0.95"/></linearGradient><linearGradient id="linear-gradient-2" x1="24.67" y1="47.67" x2="21.06" y2="21.51" gradientUnits="userSpaceOnUse"><stop offset="0.4" stop-color="#161412" stop-opacity="0"/><stop offset="0.8" stop-color="#161412" stop-opacity="0.65"/><stop offset="0.83" stop-color="#1a1816" stop-opacity="0.66"/><stop offset="0.86" stop-color="#262422" stop-opacity="0.67"/><stop offset="0.88" stop-color="#393736" stop-opacity="0.7"/><stop offset="0.91" stop-color="#545352" stop-opacity="0.74"/><stop offset="0.94" stop-color="#787776" stop-opacity="0.79"/><stop offset="0.96" stop-color="#a3a2a2" stop-opacity="0.85"/><stop offset="0.99" stop-color="#d5d5d5" stop-opacity="0.92"/><stop offset="1" stop-color="#ededed" stop-opacity="0.95"/></linearGradient></defs><g class="cls-1"><g id="Layer_1" data-name="Layer 1"><circle class="cls-2" cx="30.92" cy="30.92" r="30.92"/><path class="cls-3" d="M45.16,30a13.5,13.5,0,0,0,1.25-5.61,11.79,11.79,0,0,0-6-10.66c-2.7-1.55-6.18-2.3-10.63-2.3H20.68a1.31,1.31,0,0,1-.95-.62,1.54,1.54,0,0,1-.17-.34.25.25,0,0,0,0,.14v.82h0v1.67c0,.75,0,1.46,0,1.44a1.89,1.89,0,0,0,.17.35,1.35,1.35,0,0,0,1.14.63h1.9l.76,0c.51,0,1,0,1.52,0v0h4.77c3.71,0,6.51.58,8.56,1.76a7.59,7.59,0,0,1,3.89,7.07A9.3,9.3,0,0,1,41,29a8.14,8.14,0,0,1-1.33,1.71,8.07,8.07,0,0,1,2.16,1.8,8.48,8.48,0,0,1,1.89,5.63,9.11,9.11,0,0,1-4,7.85,16.11,16.11,0,0,1-9.09,2.37h-7.9c-.42,0-.83,0-1.25,0h-.65a1.32,1.32,0,0,0-1.14.63,1.54,1.54,0,0,0-.17.34.16.16,0,0,1,0-.09v4.11a.25.25,0,0,0,0,.14,1.89,1.89,0,0,1,.17-.35,1.36,1.36,0,0,1,1.14-.64h1.9l.76,0c.57,0,1.15,0,1.72,0h5.42A20.12,20.12,0,0,0,42.1,49.4a13.27,13.27,0,0,0,5.79-11.26A12.8,12.8,0,0,0,45.16,30Z" transform="translate(-1.08 -1.08)"/><path class="cls-4" d="M36.94,31.07v-.19c2.45-.92,4-3.79,4-6.48,0-5.74-4.85-7.45-11.08-7.45H20.47a1.33,1.33,0,0,1-.74-.57,1.8,1.8,0,0,1-.17-.34.24.24,0,0,0,0,.14V17h0V47.84a.25.25,0,0,0,0,.14,1.89,1.89,0,0,1,.17-.35A1.36,1.36,0,0,1,20.87,47h.65c.42,0,.83,0,1.25,0h7.9c.4,0,.8,0,1.18,0,6-.31,10.53-3.08,10.53-8.81A6.84,6.84,0,0,0,36.94,31.07ZM26.33,22.19h3.22c3.17,0,4.71.9,4.71,3.21S32.8,29,29.5,29H26.33Zm3.79,19.56H26.33V34h3.79c3.74,0,5.62,1.07,5.62,3.71S33.82,41.75,30.12,41.75Z" transform="translate(-1.08 -1.08)"/><path class="cls-5" d="M42.38,38.19c0,5.73-4.56,8.5-10.53,8.81a16.9,16.9,0,0,1-5.52-5.21h3.79c3.7,0,5.62-1.31,5.62-4S33.86,34,30.12,34H26.33V29H29.5c3.3,0,4.76-1.4,4.76-3.58s-1.54-3.21-4.71-3.21H26.33V17h3.49c6.23,0,11.08,1.71,11.08,7.45,0,2.69-1.51,5.56-4,6.48v.19A6.84,6.84,0,0,1,42.38,38.19Z" transform="translate(-1.08 -1.08)"/><path class="cls-6" d="M26.33,22.2V47H22.77c-.36,0-.72,0-1.07,0h-.83a1.36,1.36,0,0,0-1.14.64,1.89,1.89,0,0,0-.17.35.25.25,0,0,1,0-.14V26.25c.58-.48,1.31-1.05,2.16-1.63A21.86,21.86,0,0,1,26.33,22.2Z" transform="translate(-1.08 -1.08)"/></g></g></svg>