<svg xmlns="http://www.w3.org/2000/svg" xmlns:xlink="http://www.w3.org/1999/xlink" viewBox="0 0 338.85 460.42"><defs><style>.cls-1{isolation:isolate;}.cls-2{fill:#e8e8e8;}.cls-3{fill:#fff;}.cls-4,.cls-5{mix-blend-mode:multiply;}.cls-4{fill:url(#linear-gradient);}.cls-5{fill:url(#linear-gradient-2);}.cls-6{fill:url(#linear-gradient-3);}</style><linearGradient id="linear-gradient" x1="181.76" y1="174.05" x2="145.39" y2="376.41" gradientUnits="userSpaceOnUse"><stop offset="0.57" stop-color="#161412" stop-opacity="0"/><stop offset="0.71" stop-color="#161412" stop-opacity="0.65"/><stop offset="0.75" stop-color="#1a1816" stop-opacity="0.66"/><stop offset="0.79" stop-color="#262422" stop-opacity="0.67"/><stop offset="0.83" stop-color="#393736" stop-opacity="0.7"/><stop offset="0.87" stop-color="#545352" stop-opacity="0.74"/><stop offset="0.91" stop-color="#787776" stop-opacity="0.79"/><stop offset="0.95" stop-color="#a3a2a2" stop-opacity="0.85"/><stop offset="0.98" stop-color="#d5d5d5" stop-opacity="0.92"/><stop offset="1" stop-color="#ededed" stop-opacity="0.95"/></linearGradient><linearGradient id="linear-gradient-2" x1="79.76" y1="389.66" x2="42.63" y2="120.61" gradientUnits="userSpaceOnUse"><stop offset="0.4" stop-color="#161412" stop-opacity="0"/><stop offset="0.8" stop-color="#161412" stop-opacity="0.65"/><stop offset="0.83" stop-color="#1a1816" stop-opacity="0.66"/><stop offset="0.86" stop-color="#262422" stop-opacity="0.67"/><stop offset="0.88" stop-color="#393736" stop-opacity="0.7"/><stop offset="0.91" stop-color="#545352" stop-opacity="0.74"/><stop offset="0.94" stop-color="#787776" stop-opacity="0.79"/><stop offset="0.96" stop-color="#a3a2a2" stop-opacity="0.85"/><stop offset="0.99" stop-color="#d5d5d5" stop-opacity="0.92"/><stop offset="1" stop-color="#ededed" stop-opacity="0.95"/></linearGradient><linearGradient id="linear-gradient-3" x1="339.17" y1="441.39" x2="338.5" y2="436.49" xlink:href="#linear-gradient"/></defs><g class="cls-1"><g id="Layer_1" data-name="Layer 1"><path class="cls-2" d="M290.42,208.07a138.54,138.54,0,0,0,12.86-57.71c0-47.89-21.78-86.8-61.32-109.57-27.76-16-63.51-23.73-109.29-23.73h-94a13.53,13.53,0,0,1-9.79-6.31,24.13,24.13,0,0,1-1.78-3.52A2.73,2.73,0,0,0,27,8.64c0,2.81,0,5.62,0,8.42h0s0,2,0,5.07q0,5.75,0,11.49c0,.23,0,.46,0,.69,0,7.67.08,15,.15,14.81a24.52,24.52,0,0,0,1.78,3.51,13.69,13.69,0,0,0,11.78,6.48c2.22,0,4.45,0,6.67,0,4.27.15,8.53,0,12.79,0,2.62,0,5.23.14,7.85.14,5.2,0,10.4-.08,15.6,0v.27h49.07c38.14,0,67,5.91,88.08,18.07,26.55,15.28,40,39.74,40,72.71a95.23,95.23,0,0,1-12.83,47.33,82.32,82.32,0,0,1-13.63,17.59,82.72,82.72,0,0,1,22.25,18.52c12.9,15.41,19.43,34.87,19.43,57.85,0,34.35-14.22,62.27-41.11,80.75-23.27,16-55.56,24.42-93.39,24.42H83.59v0c-5.19.1-10.4,0-15.59,0-2.62,0-5.23.12-7.85.15-4.26.06-8.52-.12-12.79,0-2.22.08-4.45,0-6.67,0a13.69,13.69,0,0,0-11.78,6.48,24,24,0,0,0-1.78,3.51,2,2,0,0,1-.19-.89v33.18c0,3,0,6.05,0,9.07a2.79,2.79,0,0,0,.18,1.43,24.63,24.63,0,0,1,1.78-3.56,13.65,13.65,0,0,1,11.78-6.56c2.22-.05,4.45,0,6.67,0,4.27-.15,8.53,0,12.79,0,2.62,0,5.23-.15,7.85-.15,5.91,0,11.83.13,17.74,0,.67,0,1.33-.06,2-.13h53.76c46.46,0,87.08-11,117.46-31.9,38.41-26.38,59.56-67.5,59.56-115.79C318.5,259.18,308.47,230.44,290.42,208.07Z"/><path class="cls-3" d="M205.89,218.94v-1.89c25.2-9.48,40.7-39,40.7-66.69,0-59-49.8-76.61-113.92-76.61H36.56a13.56,13.56,0,0,1-7.65-5.84,24,24,0,0,1-1.78-3.51A2.72,2.72,0,0,0,27,65.81v7.94h0v308.9q0,4.39,0,8.79a2.79,2.79,0,0,0,.18,1.43,24.63,24.63,0,0,1,1.78-3.56,13.65,13.65,0,0,1,11.78-6.56c2.22-.05,4.45.05,6.67,0,4.27-.15,8.53,0,12.79,0l2,0h79.32q6.15,0,12.12-.32c61.35-3.24,108.21-31.67,108.21-90.68C261.81,250.39,237.45,227.14,205.89,218.94ZM96.78,127.63h33.16c32.55,0,48.38,9.25,48.38,33.05,0,22.46-15,36.79-48.88,36.79H96.78Zm39,201.13h-39V249h39c38.41,0,57.75,11,57.75,38.12C193.54,315.22,173.86,328.76,135.79,328.76Z"/><path class="cls-4" d="M261.81,292.15c0,59-46.86,87.44-108.21,90.68-42.27-27.25-56.82-53.57-56.82-53.57h39c38.07,0,57.75-13.54,57.75-41.63,0-27.09-19.34-38.12-57.75-38.12h-39V198h32.66c33.88,0,48.88-14.33,48.88-36.79,0-23.8-15.83-33.05-48.38-33.05H96.78V74.25h35.89c64.12,0,113.92,17.61,113.92,76.61,0,27.71-15.5,57.21-40.7,66.69v1.89C237.45,227.64,261.81,250.89,261.81,292.15Z"/><path class="cls-5" d="M96.78,127.78V382.65H62.16l-2,0c-3.66.05-7.33-.07-11,0-.6,0-1.19,0-1.79,0-2.22.08-4.45,0-6.67,0a13.65,13.65,0,0,0-11.78,6.56,24.63,24.63,0,0,0-1.78,3.56,2.79,2.79,0,0,1-.18-1.43q0-4.4,0-8.79V169.43a270.29,270.29,0,0,1,22.21-16.76A224.09,224.09,0,0,1,96.78,127.78Z"/><path class="cls-6" d="M349,440q-10.42-.78-20.33-1.85Z"/></g></g></svg>